<svg width="200" height="228" viewBox="0 0 200 228" fill="none" xmlns="http://www.w3.org/2000/svg">
<path fill-rule="evenodd" clip-rule="evenodd" d="M135.911 23.075V36.074C135.911 37.7723 137.287 39.149 138.986 39.149C140.684 39.149 142.061 37.7723 142.061 36.074V23.075C142.061 21.3767 140.684 20 138.986 20C137.287 20 135.911 21.3767 135.911 23.075ZM138.678 82.6658C149.717 82.6658 158.666 73.7171 158.666 62.6783C158.666 51.6395 149.717 42.6908 138.678 42.6908C127.639 42.6908 118.691 51.6395 118.691 62.6783C118.691 73.7171 127.639 82.6658 138.678 82.6658ZM99.075 64.8308H112.074C113.772 64.8308 115.149 63.454 115.149 61.7558C115.149 60.0575 113.772 58.6808 112.074 58.6808H99.075C97.3767 58.6808 96 60.0575 96 61.7558C96 63.454 97.3767 64.8308 99.075 64.8308ZM178.346 64.8308H165.347C163.648 64.8308 162.272 63.454 162.272 61.7558C162.272 60.0575 163.648 58.6808 165.347 58.6808H178.346C180.044 58.6808 181.421 60.0575 181.421 61.7558C181.421 63.454 180.044 64.8308 178.346 64.8308ZM135.911 102.346V89.3467C135.911 87.6485 137.287 86.2718 138.986 86.2718C140.684 86.2718 142.061 87.6485 142.061 89.3467V102.346C142.061 104.044 140.684 105.421 138.986 105.421C137.287 105.421 135.911 104.044 135.911 102.346ZM108.718 36.6314L117.909 45.8231C119.11 47.024 121.057 47.024 122.258 45.8231C123.459 44.6223 123.459 42.6753 122.258 41.4744L113.066 32.2827C111.865 31.0819 109.918 31.0819 108.718 32.2827C107.517 33.4836 107.517 35.4306 108.718 36.6314ZM164.771 92.6844L155.579 83.4927C154.378 82.2918 154.378 80.3448 155.579 79.1439C156.78 77.9431 158.727 77.9431 159.928 79.1439L169.119 88.3357C170.32 89.5365 170.32 91.4835 169.119 92.6844C167.918 93.8852 165.971 93.8852 164.771 92.6844ZM164.11 32.7176L154.918 41.9093C153.718 43.1102 153.718 45.0572 154.918 46.258C156.119 47.4589 158.066 47.4589 159.267 46.258L168.459 37.0663C169.66 35.8655 169.66 33.9185 168.459 32.7176C167.258 31.5168 165.311 31.5168 164.11 32.7176ZM108.057 88.7705L117.249 79.5788C118.45 78.378 120.397 78.378 121.598 79.5788C122.798 80.7797 122.798 82.7267 121.598 83.9275L112.406 93.1192C111.205 94.3201 109.258 94.3201 108.057 93.1192C106.856 91.9184 106.856 89.9714 108.057 88.7705Z" fill="url(#paint0_linear_0_77)"/>
<path fill-rule="evenodd" clip-rule="evenodd" d="M47.29 79.0386C49.7446 58.1809 67.4827 42 89 42C103.835 42 116.874 49.6914 124.346 61.304C127.975 60.4511 131.759 60 135.648 60C162.904 60 185 82.1619 185 109.5C185 136.838 162.904 159 135.648 159H53.0682C30.9391 159 13 141.007 13 118.812C13 98.5847 27.8988 81.8477 47.29 79.0386Z" fill="url(#paint1_linear_0_77)"/>
<path d="M44.3625 185.266L36.7386 200.514C35.5036 202.984 36.5047 205.987 38.9746 207.222C41.4445 208.457 44.4479 207.456 45.6828 204.986L53.3068 189.738C54.5417 187.268 53.5406 184.265 51.0707 183.03C48.6008 181.795 45.5975 182.796 44.3625 185.266Z" fill="#A8D9FF"/>
<path d="M94.8646 185.266L87.2407 200.514C86.0057 202.984 87.0068 205.987 89.4767 207.222C91.9466 208.457 94.95 207.456 96.1849 204.986L103.809 189.738C105.044 187.268 104.043 184.265 101.573 183.03C99.1029 181.795 96.0996 182.796 94.8646 185.266Z" fill="#A8D9FF"/>
<path d="M74.7889 174.053L67.1649 189.301C65.93 191.771 66.9311 194.774 69.401 196.009C71.8709 197.244 74.8742 196.243 76.1092 193.773L83.7331 178.525C84.9681 176.055 83.967 173.052 81.4971 171.817C79.0272 170.582 76.0238 171.583 74.7889 174.053Z" fill="#A8D9FF"/>
<path d="M125.291 174.053L117.667 189.301C116.432 191.771 117.433 194.774 119.903 196.009C122.373 197.244 125.376 196.243 126.611 193.773L134.235 178.525C135.47 176.055 134.469 173.052 131.999 171.817C129.529 170.582 126.526 171.583 125.291 174.053Z" fill="#A8D9FF"/>
<path d="M89.1518 143.764L81.5279 159.012C80.2929 161.482 81.294 164.485 83.7639 165.72C86.2338 166.955 89.2372 165.954 90.4721 163.484L98.0961 148.236C99.331 145.766 98.3299 142.763 95.86 141.528C93.3901 140.293 90.3868 141.294 89.1518 143.764Z" fill="#A8D9FF"/>
<path d="M140.152 143.764L132.528 159.012C131.293 161.482 132.294 164.485 134.764 165.72C137.234 166.955 140.237 165.954 141.472 163.484L149.096 148.236C150.331 145.766 149.33 142.763 146.86 141.528C144.39 140.293 141.387 141.294 140.152 143.764Z" fill="#A8D9FF"/>
<path d="M109.152 154.764L101.528 170.012C100.293 172.482 101.294 175.485 103.764 176.72C106.234 177.955 109.237 176.954 110.472 174.484L118.096 159.236C119.331 156.766 118.33 153.763 115.86 152.528C113.39 151.293 110.387 152.294 109.152 154.764Z" fill="#A8D9FF"/>
<path d="M59.1518 154.764L51.5279 170.012C50.2929 172.482 51.294 175.485 53.7639 176.72C56.2338 177.955 59.2372 176.954 60.4721 174.484L68.0961 159.236C69.331 156.766 68.3299 153.763 65.86 152.528C63.3901 151.293 60.3868 152.294 59.1518 154.764Z" fill="#A8D9FF"/>
<defs>
<linearGradient id="paint0_linear_0_77" x1="96" y1="20" x2="96" y2="105.421" gradientUnits="userSpaceOnUse">
<stop stop-color="#FFFCC9"/>
<stop offset="1" stop-color="#FFF799"/>
</linearGradient>
<linearGradient id="paint1_linear_0_77" x1="13" y1="42" x2="13" y2="159" gradientUnits="userSpaceOnUse">
<stop stop-color="#A9D9FF"/>
<stop offset="1" stop-color="#7AC5FF"/>
</linearGradient>
</defs>
</svg>
